<mxfile host="app.diagrams.net" agent="Mozilla/5.0 (Windows NT 10.0; Win64; x64) AppleWebKit/537.36 (KHTML, like Gecko) Chrome/128.0.0.0 Safari/537.36" version="24.7.12">
  <diagram name="Página-1" id="PKLPYooLh8xyoDgeMQU7">
    <mxGraphModel dx="1434" dy="786" grid="1" gridSize="10" guides="1" tooltips="1" connect="1" arrows="1" fold="1" page="1" pageScale="1" pageWidth="827" pageHeight="1169" math="0" shadow="0">
      <root>
        <mxCell id="0" />
        <mxCell id="1" parent="0" />
        <mxCell id="u-xE3NVzMhVS0qL2drZM-1" value="cliente" style="whiteSpace=wrap;html=1;aspect=fixed;" vertex="1" parent="1">
          <mxGeometry x="150" y="130" width="80" height="80" as="geometry" />
        </mxCell>
        <mxCell id="u-xE3NVzMhVS0qL2drZM-2" value="apólice" style="whiteSpace=wrap;html=1;aspect=fixed;" vertex="1" parent="1">
          <mxGeometry x="430" y="130" width="80" height="80" as="geometry" />
        </mxCell>
        <mxCell id="u-xE3NVzMhVS0qL2drZM-3" value="carro" style="whiteSpace=wrap;html=1;aspect=fixed;" vertex="1" parent="1">
          <mxGeometry x="430" y="390" width="80" height="80" as="geometry" />
        </mxCell>
        <mxCell id="u-xE3NVzMhVS0qL2drZM-4" value="Acidente" style="whiteSpace=wrap;html=1;aspect=fixed;" vertex="1" parent="1">
          <mxGeometry x="150" y="390" width="80" height="80" as="geometry" />
        </mxCell>
        <mxCell id="u-xE3NVzMhVS0qL2drZM-5" value="possui" style="rhombus;whiteSpace=wrap;html=1;" vertex="1" parent="1">
          <mxGeometry x="290" y="130" width="80" height="80" as="geometry" />
        </mxCell>
        <mxCell id="u-xE3NVzMhVS0qL2drZM-6" value="cobre" style="rhombus;whiteSpace=wrap;html=1;" vertex="1" parent="1">
          <mxGeometry x="430" y="260" width="80" height="80" as="geometry" />
        </mxCell>
        <mxCell id="u-xE3NVzMhVS0qL2drZM-7" value="registra" style="rhombus;whiteSpace=wrap;html=1;" vertex="1" parent="1">
          <mxGeometry x="290" y="390" width="80" height="80" as="geometry" />
        </mxCell>
        <mxCell id="u-xE3NVzMhVS0qL2drZM-8" value="" style="endArrow=none;html=1;rounded=0;exitX=1;exitY=0.5;exitDx=0;exitDy=0;entryX=0;entryY=0.5;entryDx=0;entryDy=0;" edge="1" parent="1" source="u-xE3NVzMhVS0qL2drZM-1" target="u-xE3NVzMhVS0qL2drZM-5">
          <mxGeometry width="50" height="50" relative="1" as="geometry">
            <mxPoint x="390" y="430" as="sourcePoint" />
            <mxPoint x="440" y="380" as="targetPoint" />
          </mxGeometry>
        </mxCell>
        <mxCell id="u-xE3NVzMhVS0qL2drZM-9" value="" style="endArrow=none;html=1;rounded=0;exitX=0;exitY=0.5;exitDx=0;exitDy=0;entryX=1;entryY=0.5;entryDx=0;entryDy=0;" edge="1" parent="1" source="u-xE3NVzMhVS0qL2drZM-2" target="u-xE3NVzMhVS0qL2drZM-5">
          <mxGeometry width="50" height="50" relative="1" as="geometry">
            <mxPoint x="240" y="180" as="sourcePoint" />
            <mxPoint x="300" y="180" as="targetPoint" />
          </mxGeometry>
        </mxCell>
        <mxCell id="u-xE3NVzMhVS0qL2drZM-10" value="" style="endArrow=none;html=1;rounded=0;exitX=0.5;exitY=0;exitDx=0;exitDy=0;entryX=0.5;entryY=1;entryDx=0;entryDy=0;" edge="1" parent="1" source="u-xE3NVzMhVS0qL2drZM-6" target="u-xE3NVzMhVS0qL2drZM-2">
          <mxGeometry width="50" height="50" relative="1" as="geometry">
            <mxPoint x="240" y="180" as="sourcePoint" />
            <mxPoint x="300" y="180" as="targetPoint" />
          </mxGeometry>
        </mxCell>
        <mxCell id="u-xE3NVzMhVS0qL2drZM-11" value="" style="endArrow=none;html=1;rounded=0;exitX=0.5;exitY=1;exitDx=0;exitDy=0;entryX=0.5;entryY=0;entryDx=0;entryDy=0;" edge="1" parent="1" source="u-xE3NVzMhVS0qL2drZM-6" target="u-xE3NVzMhVS0qL2drZM-3">
          <mxGeometry width="50" height="50" relative="1" as="geometry">
            <mxPoint x="250" y="190" as="sourcePoint" />
            <mxPoint x="310" y="190" as="targetPoint" />
          </mxGeometry>
        </mxCell>
        <mxCell id="u-xE3NVzMhVS0qL2drZM-12" value="" style="endArrow=none;html=1;rounded=0;exitX=1;exitY=0.5;exitDx=0;exitDy=0;entryX=0;entryY=0.5;entryDx=0;entryDy=0;" edge="1" parent="1" source="u-xE3NVzMhVS0qL2drZM-7" target="u-xE3NVzMhVS0qL2drZM-3">
          <mxGeometry width="50" height="50" relative="1" as="geometry">
            <mxPoint x="480" y="350" as="sourcePoint" />
            <mxPoint x="480" y="400" as="targetPoint" />
          </mxGeometry>
        </mxCell>
        <mxCell id="u-xE3NVzMhVS0qL2drZM-13" value="" style="endArrow=none;html=1;rounded=0;exitX=1;exitY=0.5;exitDx=0;exitDy=0;entryX=0;entryY=0.5;entryDx=0;entryDy=0;" edge="1" parent="1" source="u-xE3NVzMhVS0qL2drZM-4" target="u-xE3NVzMhVS0qL2drZM-7">
          <mxGeometry width="50" height="50" relative="1" as="geometry">
            <mxPoint x="380" y="440" as="sourcePoint" />
            <mxPoint x="280" y="460" as="targetPoint" />
          </mxGeometry>
        </mxCell>
        <mxCell id="u-xE3NVzMhVS0qL2drZM-15" value="n" style="text;html=1;align=center;verticalAlign=middle;whiteSpace=wrap;rounded=0;" vertex="1" parent="1">
          <mxGeometry x="250" y="400" width="60" height="30" as="geometry" />
        </mxCell>
        <mxCell id="u-xE3NVzMhVS0qL2drZM-16" value="n" style="text;html=1;align=center;verticalAlign=middle;whiteSpace=wrap;rounded=0;" vertex="1" parent="1">
          <mxGeometry x="350" y="140" width="60" height="30" as="geometry" />
        </mxCell>
        <mxCell id="u-xE3NVzMhVS0qL2drZM-17" value="1" style="text;html=1;align=center;verticalAlign=middle;whiteSpace=wrap;rounded=0;" vertex="1" parent="1">
          <mxGeometry x="250" y="140" width="60" height="30" as="geometry" />
        </mxCell>
        <mxCell id="u-xE3NVzMhVS0qL2drZM-18" value="1" style="text;html=1;align=center;verticalAlign=middle;whiteSpace=wrap;rounded=0;" vertex="1" parent="1">
          <mxGeometry x="420" y="330" width="60" height="30" as="geometry" />
        </mxCell>
        <mxCell id="u-xE3NVzMhVS0qL2drZM-19" value="1" style="text;html=1;align=center;verticalAlign=middle;whiteSpace=wrap;rounded=0;" vertex="1" parent="1">
          <mxGeometry x="420" y="240" width="60" height="30" as="geometry" />
        </mxCell>
        <mxCell id="u-xE3NVzMhVS0qL2drZM-20" value="1" style="text;html=1;align=center;verticalAlign=middle;whiteSpace=wrap;rounded=0;" vertex="1" parent="1">
          <mxGeometry x="350" y="400" width="60" height="30" as="geometry" />
        </mxCell>
        <mxCell id="u-xE3NVzMhVS0qL2drZM-21" value="Número(PK)" style="ellipse;whiteSpace=wrap;html=1;textShadow=0;" vertex="1" parent="1">
          <mxGeometry x="40" y="90" width="80" height="40" as="geometry" />
        </mxCell>
        <mxCell id="u-xE3NVzMhVS0qL2drZM-23" value="Nome" style="ellipse;whiteSpace=wrap;html=1;textShadow=0;" vertex="1" parent="1">
          <mxGeometry x="40" y="150" width="80" height="40" as="geometry" />
        </mxCell>
        <mxCell id="u-xE3NVzMhVS0qL2drZM-24" value="Endereço" style="ellipse;whiteSpace=wrap;html=1;textShadow=0;" vertex="1" parent="1">
          <mxGeometry x="40" y="210" width="80" height="40" as="geometry" />
        </mxCell>
        <mxCell id="u-xE3NVzMhVS0qL2drZM-25" value="" style="endArrow=none;html=1;rounded=0;entryX=1;entryY=0.5;entryDx=0;entryDy=0;exitX=0;exitY=0.25;exitDx=0;exitDy=0;" edge="1" parent="1" source="u-xE3NVzMhVS0qL2drZM-4" target="u-xE3NVzMhVS0qL2drZM-42">
          <mxGeometry width="50" height="50" relative="1" as="geometry">
            <mxPoint x="250" y="330" as="sourcePoint" />
            <mxPoint x="170" y="330" as="targetPoint" />
          </mxGeometry>
        </mxCell>
        <mxCell id="u-xE3NVzMhVS0qL2drZM-26" value="" style="endArrow=none;html=1;rounded=0;entryX=1;entryY=0.5;entryDx=0;entryDy=0;exitX=0;exitY=0.75;exitDx=0;exitDy=0;" edge="1" parent="1" source="u-xE3NVzMhVS0qL2drZM-1" target="u-xE3NVzMhVS0qL2drZM-24">
          <mxGeometry width="50" height="50" relative="1" as="geometry">
            <mxPoint x="140" y="360" as="sourcePoint" />
            <mxPoint x="60" y="360" as="targetPoint" />
          </mxGeometry>
        </mxCell>
        <mxCell id="u-xE3NVzMhVS0qL2drZM-27" value="" style="endArrow=none;html=1;rounded=0;entryX=1;entryY=0.5;entryDx=0;entryDy=0;exitX=0;exitY=0.5;exitDx=0;exitDy=0;" edge="1" parent="1" source="u-xE3NVzMhVS0qL2drZM-1" target="u-xE3NVzMhVS0qL2drZM-23">
          <mxGeometry width="50" height="50" relative="1" as="geometry">
            <mxPoint x="160" y="200" as="sourcePoint" />
            <mxPoint x="130" y="240" as="targetPoint" />
          </mxGeometry>
        </mxCell>
        <mxCell id="u-xE3NVzMhVS0qL2drZM-28" value="" style="endArrow=none;html=1;rounded=0;entryX=1;entryY=0.5;entryDx=0;entryDy=0;exitX=0;exitY=0.25;exitDx=0;exitDy=0;" edge="1" parent="1" source="u-xE3NVzMhVS0qL2drZM-1" target="u-xE3NVzMhVS0qL2drZM-21">
          <mxGeometry width="50" height="50" relative="1" as="geometry">
            <mxPoint x="160" y="180" as="sourcePoint" />
            <mxPoint x="130" y="180" as="targetPoint" />
          </mxGeometry>
        </mxCell>
        <mxCell id="u-xE3NVzMhVS0qL2drZM-29" value="" style="endArrow=none;html=1;rounded=0;exitX=0;exitY=0.5;exitDx=0;exitDy=0;entryX=1;entryY=0.25;entryDx=0;entryDy=0;" edge="1" parent="1" source="u-xE3NVzMhVS0qL2drZM-31" target="u-xE3NVzMhVS0qL2drZM-2">
          <mxGeometry width="50" height="50" relative="1" as="geometry">
            <mxPoint x="140" y="360" as="sourcePoint" />
            <mxPoint x="180" y="320" as="targetPoint" />
          </mxGeometry>
        </mxCell>
        <mxCell id="u-xE3NVzMhVS0qL2drZM-31" value="Número(PK)" style="ellipse;whiteSpace=wrap;html=1;textShadow=0;" vertex="1" parent="1">
          <mxGeometry x="540" y="90" width="80" height="40" as="geometry" />
        </mxCell>
        <mxCell id="u-xE3NVzMhVS0qL2drZM-32" value="Valor" style="ellipse;whiteSpace=wrap;html=1;textShadow=0;" vertex="1" parent="1">
          <mxGeometry x="540" y="150" width="80" height="40" as="geometry" />
        </mxCell>
        <mxCell id="u-xE3NVzMhVS0qL2drZM-33" value="" style="endArrow=none;html=1;rounded=0;exitX=0;exitY=0.5;exitDx=0;exitDy=0;entryX=1;entryY=0.5;entryDx=0;entryDy=0;" edge="1" parent="1" source="u-xE3NVzMhVS0qL2drZM-32" target="u-xE3NVzMhVS0qL2drZM-2">
          <mxGeometry width="50" height="50" relative="1" as="geometry">
            <mxPoint x="550" y="120" as="sourcePoint" />
            <mxPoint x="520" y="160" as="targetPoint" />
          </mxGeometry>
        </mxCell>
        <mxCell id="u-xE3NVzMhVS0qL2drZM-34" value="Registro(PK)" style="ellipse;whiteSpace=wrap;html=1;textShadow=0;" vertex="1" parent="1">
          <mxGeometry x="540" y="350" width="80" height="40" as="geometry" />
        </mxCell>
        <mxCell id="u-xE3NVzMhVS0qL2drZM-35" value="Marca" style="ellipse;whiteSpace=wrap;html=1;textShadow=0;" vertex="1" parent="1">
          <mxGeometry x="540" y="410" width="80" height="40" as="geometry" />
        </mxCell>
        <mxCell id="u-xE3NVzMhVS0qL2drZM-36" value="ApóliceNúmero" style="ellipse;whiteSpace=wrap;html=1;textShadow=0;" vertex="1" parent="1">
          <mxGeometry x="540" y="470" width="80" height="40" as="geometry" />
        </mxCell>
        <mxCell id="u-xE3NVzMhVS0qL2drZM-37" value="Local" style="ellipse;whiteSpace=wrap;html=1;textShadow=0;" vertex="1" parent="1">
          <mxGeometry x="430" y="500" width="80" height="40" as="geometry" />
        </mxCell>
        <mxCell id="u-xE3NVzMhVS0qL2drZM-38" value="" style="endArrow=none;html=1;rounded=0;entryX=0.5;entryY=0;entryDx=0;entryDy=0;exitX=0.5;exitY=1;exitDx=0;exitDy=0;" edge="1" parent="1" source="u-xE3NVzMhVS0qL2drZM-3" target="u-xE3NVzMhVS0qL2drZM-37">
          <mxGeometry width="50" height="50" relative="1" as="geometry">
            <mxPoint x="140" y="360" as="sourcePoint" />
            <mxPoint x="60" y="360" as="targetPoint" />
          </mxGeometry>
        </mxCell>
        <mxCell id="u-xE3NVzMhVS0qL2drZM-39" value="" style="endArrow=none;html=1;rounded=0;entryX=0;entryY=0.5;entryDx=0;entryDy=0;exitX=1;exitY=0.75;exitDx=0;exitDy=0;" edge="1" parent="1" source="u-xE3NVzMhVS0qL2drZM-3" target="u-xE3NVzMhVS0qL2drZM-36">
          <mxGeometry width="50" height="50" relative="1" as="geometry">
            <mxPoint x="480" y="480" as="sourcePoint" />
            <mxPoint x="480" y="510" as="targetPoint" />
          </mxGeometry>
        </mxCell>
        <mxCell id="u-xE3NVzMhVS0qL2drZM-40" value="" style="endArrow=none;html=1;rounded=0;entryX=0;entryY=0.5;entryDx=0;entryDy=0;exitX=1;exitY=0.5;exitDx=0;exitDy=0;" edge="1" parent="1" source="u-xE3NVzMhVS0qL2drZM-3" target="u-xE3NVzMhVS0qL2drZM-35">
          <mxGeometry width="50" height="50" relative="1" as="geometry">
            <mxPoint x="520" y="460" as="sourcePoint" />
            <mxPoint x="550" y="500" as="targetPoint" />
          </mxGeometry>
        </mxCell>
        <mxCell id="u-xE3NVzMhVS0qL2drZM-41" value="" style="endArrow=none;html=1;rounded=0;entryX=1;entryY=0.25;entryDx=0;entryDy=0;exitX=0;exitY=0.5;exitDx=0;exitDy=0;" edge="1" parent="1" source="u-xE3NVzMhVS0qL2drZM-34" target="u-xE3NVzMhVS0qL2drZM-3">
          <mxGeometry width="50" height="50" relative="1" as="geometry">
            <mxPoint x="520" y="440" as="sourcePoint" />
            <mxPoint x="550" y="440" as="targetPoint" />
          </mxGeometry>
        </mxCell>
        <mxCell id="u-xE3NVzMhVS0qL2drZM-42" value="Registro&lt;br&gt;Carro(PK)" style="ellipse;whiteSpace=wrap;html=1;textShadow=0;" vertex="1" parent="1">
          <mxGeometry x="40" y="350" width="80" height="40" as="geometry" />
        </mxCell>
        <mxCell id="u-xE3NVzMhVS0qL2drZM-43" value="Data" style="ellipse;whiteSpace=wrap;html=1;textShadow=0;" vertex="1" parent="1">
          <mxGeometry x="40" y="410" width="80" height="40" as="geometry" />
        </mxCell>
        <mxCell id="u-xE3NVzMhVS0qL2drZM-44" value="Hora" style="ellipse;whiteSpace=wrap;html=1;textShadow=0;" vertex="1" parent="1">
          <mxGeometry x="40" y="470" width="80" height="40" as="geometry" />
        </mxCell>
        <mxCell id="u-xE3NVzMhVS0qL2drZM-45" value="" style="endArrow=none;html=1;rounded=0;entryX=1;entryY=0.5;entryDx=0;entryDy=0;exitX=0;exitY=0.5;exitDx=0;exitDy=0;" edge="1" parent="1" source="u-xE3NVzMhVS0qL2drZM-4" target="u-xE3NVzMhVS0qL2drZM-43">
          <mxGeometry width="50" height="50" relative="1" as="geometry">
            <mxPoint x="160" y="420" as="sourcePoint" />
            <mxPoint x="130" y="380" as="targetPoint" />
          </mxGeometry>
        </mxCell>
        <mxCell id="u-xE3NVzMhVS0qL2drZM-46" value="" style="endArrow=none;html=1;rounded=0;entryX=1;entryY=0.5;entryDx=0;entryDy=0;exitX=0;exitY=0.75;exitDx=0;exitDy=0;" edge="1" parent="1" source="u-xE3NVzMhVS0qL2drZM-4" target="u-xE3NVzMhVS0qL2drZM-44">
          <mxGeometry width="50" height="50" relative="1" as="geometry">
            <mxPoint x="160" y="440" as="sourcePoint" />
            <mxPoint x="130" y="440" as="targetPoint" />
          </mxGeometry>
        </mxCell>
      </root>
    </mxGraphModel>
  </diagram>
</mxfile>
